<svg xmlns="http://www.w3.org/2000/svg" fill="none" viewBox="0 0 128 128">
    <path d="M45.016 73.368V59.8H65.88C70.1467 59.8 73.432 58.7333 75.736 56.6C78.1253 54.3813 79.32 51.352 79.32 47.512C79.32 44.0133 78.1253 41.112 75.736 38.808C73.432 36.4187 70.1467 35.224 65.88 35.224H45.016V21.016H67.416C73.2187 21.016 78.296 22.168 82.648 24.472C87.0853 26.6907 90.4987 29.7627 92.888 33.688C95.3627 37.6133 96.6 42.136 96.6 47.256C96.6 52.5467 95.3627 57.1547 92.888 61.08C90.4987 64.92 87.0853 67.9493 82.648 70.168C78.2107 72.3013 73.048 73.368 67.16 73.368H45.016ZM32.216 111V21.016H49.624V111H32.216ZM81.368 111L51.672 72.088L67.672 67.096L102.488 111H81.368Z" />
    <style>
        path { fill: #000; }
        @media (prefers-color-scheme: dark) {
            path { fill: #FFF; }
        }
    </style>
</svg>
